<svg width="31" height="30" viewBox="0 0 31 30" fill="none" xmlns="http://www.w3.org/2000/svg">
<path d="M30.1666 6.99998V1.66665C30.1666 1.31302 30.0261 0.973885 29.7761 0.723836C29.526 0.473788 29.1869 0.333313 28.8333 0.333313H2.16659C1.81296 0.333313 1.47382 0.473788 1.22378 0.723836C0.973727 0.973885 0.833252 1.31302 0.833252 1.66665V6.99998H30.1666Z" fill="#1DB5BE"/>
<path d="M0.833252 9.66663V28.3333C0.833252 28.6869 0.973727 29.0261 1.22378 29.2761C1.47382 29.5262 1.81296 29.6666 2.16659 29.6666H8.83325V9.66663H0.833252Z" fill="#C4B5FD"/>
<path d="M11.5 29.6666H28.8333C29.187 29.6666 29.5261 29.5262 29.7761 29.2761C30.0262 29.0261 30.1667 28.6869 30.1667 28.3333V9.66663H11.5V29.6666Z" fill="#7C3AED"/>
</svg>
