<svg width="27" height="32" viewBox="0 0 27 32" fill="none" xmlns="http://www.w3.org/2000/svg">
<path d="M25.5001 32H13.5001C13.1465 32 12.8073 31.8595 12.5573 31.6095C12.3072 31.3594 12.1667 31.0203 12.1667 30.6667V28C12.1667 27.6464 12.3072 27.3073 12.5573 27.0572C12.8073 26.8072 13.1465 26.6667 13.5001 26.6667H25.5001C25.8537 26.6667 26.1928 26.8072 26.4429 27.0572C26.6929 27.3073 26.8334 27.6464 26.8334 28V30.6667C26.8334 31.0203 26.6929 31.3594 26.4429 31.6095C26.1928 31.8595 25.8537 32 25.5001 32Z" fill="#C4B5FD"/>
<path d="M25.5001 0H1.50008C1.14646 0 0.80732 0.140475 0.557271 0.390523C0.307223 0.640572 0.166748 0.979711 0.166748 1.33333V4C0.166748 4.35362 0.307223 4.69276 0.557271 4.94281C0.80732 5.19286 1.14646 5.33333 1.50008 5.33333H25.5001C25.8537 5.33333 26.1928 5.19286 26.4429 4.94281C26.6929 4.69276 26.8334 4.35362 26.8334 4V1.33333C26.8334 0.979711 26.6929 0.640572 26.4429 0.390523C26.1928 0.140475 25.8537 0 25.5001 0Z" fill="#1DB5BE"/>
<path d="M25.5001 8H1.50008C1.14646 8 0.80732 8.14047 0.557271 8.39052C0.307223 8.64057 0.166748 8.97971 0.166748 9.33333V22.6667C0.166748 23.0203 0.307223 23.3594 0.557271 23.6095C0.80732 23.8595 1.14646 24 1.50008 24H25.5001C25.8537 24 26.1928 23.8595 26.4429 23.6095C26.6929 23.3594 26.8334 23.0203 26.8334 22.6667V9.33333C26.8334 8.97971 26.6929 8.64057 26.4429 8.39052C26.1928 8.14047 25.8537 8 25.5001 8Z" fill="#7C3AED"/>
</svg>
