<svg width="31" height="30" viewBox="0 0 31 30" fill="none" xmlns="http://www.w3.org/2000/svg">
<path d="M6.16658 0.333374H2.16659C1.81296 0.333374 1.47382 0.473849 1.22378 0.723897C0.973727 0.973946 0.833252 1.31309 0.833252 1.66671V28.3334C0.833252 28.687 0.973727 29.0261 1.22378 29.2762C1.47382 29.5262 1.81296 29.6667 2.16659 29.6667H6.16658V0.333374Z" fill="#C4B5FD"/>
<path d="M8.83325 29.6667H22.1666V0.333374H8.83325V29.6667ZM15.4999 24.3334C15.1463 24.3334 14.8072 24.1929 14.5571 23.9429C14.3071 23.6928 14.1666 23.3537 14.1666 23C14.1666 22.6464 14.3071 22.3073 14.5571 22.0572C14.8072 21.8072 15.1463 21.6667 15.4999 21.6667C15.8535 21.6667 16.1927 21.8072 16.4427 22.0572C16.6928 22.3073 16.8333 22.6464 16.8333 23C16.8333 23.3537 16.6928 23.6928 16.4427 23.9429C16.1927 24.1929 15.8535 24.3334 15.4999 24.3334ZM15.4999 5.66671C15.8535 5.66671 16.1927 5.80718 16.4427 6.05723C16.6928 6.30728 16.8333 6.64642 16.8333 7.00004C16.8333 7.35366 16.6928 7.6928 16.4427 7.94285C16.1927 8.1929 15.8535 8.33337 15.4999 8.33337C15.1463 8.33337 14.8072 8.1929 14.5571 7.94285C14.3071 7.6928 14.1666 7.35366 14.1666 7.00004C14.1666 6.64642 14.3071 6.30728 14.5571 6.05723C14.8072 5.80718 15.1463 5.66671 15.4999 5.66671ZM15.4999 13.6667C15.8535 13.6667 16.1927 13.8072 16.4427 14.0572C16.6928 14.3073 16.8333 14.6464 16.8333 15C16.8333 15.3537 16.6928 15.6928 16.4427 15.9429C16.1927 16.1929 15.8535 16.3334 15.4999 16.3334C15.1463 16.3334 14.8072 16.1929 14.5571 15.9429C14.3071 15.6928 14.1666 15.3537 14.1666 15C14.1666 14.6464 14.3071 14.3073 14.5571 14.0572C14.8072 13.8072 15.1463 13.6667 15.4999 13.6667Z" fill="#7C3AED"/>
<path d="M28.8333 0.333374H24.8333V29.6667H28.8333C29.1869 29.6667 29.526 29.5262 29.7761 29.2762C30.0261 29.0261 30.1666 28.687 30.1666 28.3334V1.66671C30.1666 1.31309 30.0261 0.973946 29.7761 0.723897C29.526 0.473849 29.1869 0.333374 28.8333 0.333374Z" fill="#1DB5BE"/>
</svg>
