<svg width="32" height="32" viewBox="0 0 32 32" fill="none" xmlns="http://www.w3.org/2000/svg">
<path d="M6.66658 1.33325H2.66659C2.31296 1.33325 1.97382 1.47373 1.72378 1.72378C1.47373 1.97382 1.33325 2.31296 1.33325 2.66659V29.3333C1.33325 29.6869 1.47373 30.026 1.72378 30.2761C1.97382 30.5261 2.31296 30.6666 2.66659 30.6666H6.66658V1.33325Z" fill="#C4B5FD"/>
<path d="M9.33325 30.6666H22.6666V1.33325H9.33325V30.6666ZM15.9999 25.3333C15.6463 25.3333 15.3072 25.1928 15.0571 24.9427C14.8071 24.6927 14.6666 24.3535 14.6666 23.9999C14.6666 23.6463 14.8071 23.3072 15.0571 23.0571C15.3072 22.8071 15.6463 22.6666 15.9999 22.6666C16.3535 22.6666 16.6927 22.8071 16.9427 23.0571C17.1928 23.3072 17.3333 23.6463 17.3333 23.9999C17.3333 24.3535 17.1928 24.6927 16.9427 24.9427C16.6927 25.1928 16.3535 25.3333 15.9999 25.3333ZM15.9999 6.66658C16.3535 6.66658 16.6927 6.80706 16.9427 7.05711C17.1928 7.30716 17.3333 7.6463 17.3333 7.99992C17.3333 8.35354 17.1928 8.69268 16.9427 8.94273C16.6927 9.19278 16.3535 9.33325 15.9999 9.33325C15.6463 9.33325 15.3072 9.19278 15.0571 8.94273C14.8071 8.69268 14.6666 8.35354 14.6666 7.99992C14.6666 7.6463 14.8071 7.30716 15.0571 7.05711C15.3072 6.80706 15.6463 6.66658 15.9999 6.66658ZM15.9999 14.6666C16.3535 14.6666 16.6927 14.8071 16.9427 15.0571C17.1928 15.3072 17.3333 15.6463 17.3333 15.9999C17.3333 16.3535 17.1928 16.6927 16.9427 16.9427C16.6927 17.1928 16.3535 17.3333 15.9999 17.3333C15.6463 17.3333 15.3072 17.1928 15.0571 16.9427C14.8071 16.6927 14.6666 16.3535 14.6666 15.9999C14.6666 15.6463 14.8071 15.3072 15.0571 15.0571C15.3072 14.8071 15.6463 14.6666 15.9999 14.6666Z" fill="#7C3AED"/>
<path d="M29.3333 1.33325H25.3333V30.6666H29.3333C29.6869 30.6666 30.026 30.5261 30.2761 30.2761C30.5261 30.026 30.6666 29.6869 30.6666 29.3333V2.66659C30.6666 2.31296 30.5261 1.97382 30.2761 1.72378C30.026 1.47373 29.6869 1.33325 29.3333 1.33325Z" fill="#1DB5BE"/>
</svg>
