<svg width="96" height="78" viewBox="0 0 96 78" fill="none" xmlns="http://www.w3.org/2000/svg">
<path fill-rule="evenodd" clip-rule="evenodd" d="M95.579 12.1822C81.2634 18.9501 74.1057 26.9023 74.1057 36.039C80.2074 36.7158 85.253 39.1128 89.2426 43.2299C93.2322 47.3471 95.227 52.1128 95.227 57.5271C95.227 63.2799 93.2909 68.1301 89.4186 72.0781C85.5464 76.026 80.6768 78 74.8098 78C68.2387 78 62.5477 75.4339 57.7367 70.3015C52.9258 65.1692 50.5203 58.9371 50.5203 51.6052C50.5203 29.6094 63.3103 12.4079 88.8906 0L95.579 12.1822ZM45.0587 12.1822C30.6257 18.9501 23.4094 26.9023 23.4094 36.039C29.6285 36.7158 34.7327 39.1128 38.7223 43.2299C42.7119 47.3471 44.7066 52.1128 44.7066 57.5271C44.7066 63.2799 42.7412 68.1301 38.8103 72.0781C34.8794 76.026 29.9805 78 24.1134 78C17.5423 78 11.8807 75.4339 7.12842 70.3015C2.37612 65.1692 0 58.9371 0 51.6052C0 29.6094 12.7313 12.4079 38.1943 0L45.0587 12.1822Z" fill="#1DB5BE"/>
</svg>
